<svg xmlns="http://www.w3.org/2000/svg" shape-rendering="crispEdges" viewBox="0 -0.5 16 16"><path stroke="#fff" d="M3 1h7M1 2h3m5 0h3M1 3h1m9 0h2M0 4h2m10 0h1M0 5h1m7 0h1m1 0h1m1 0h3M0 6h1m5 0h1m7 0h2M0 7h1m14 0h1M0 8h1m9 0h1m2 0h3M0 9h2m5 0h1m5 0h1M1 10h1m11 0h1M1 11h2m4 0h2m4 0h1M2 12h2m9 0h1M3 13h2m7 0h2M4 14h3m4 0h2m-7 1h6"/><path stroke="#000" d="M4 2h1M2 3h1m2 0h6M2 4h1m2 0h3m3 0h1M1 5h1m2 0h1m6 0h1M1 6h1m2 0h1M1 7h2m2 0h1m2 0h3m1 0h2M1 8h3m1 0h3m3 0h1M8 9h1m1 0h2m-8 1h1m2 0h2m3 0h1m-9 1h2m3 0h4m-9 1h4m4 0h1m-8 1h4m1 0h2m-5 1h4"/><path stroke="#2e2e2c" d="M5 2h4M3 3h2M3 4h2M2 5h2M2 6h2m4 0h6M3 7h2m1 0h2m6 0h1M4 8h1m3 4h2m1 0h1m-3 1h1"/><path stroke="#f28798" d="M8 4h3M5 5h3m1 0h1M5 6h1m1 0h1"/><path stroke="#ccc" d="M11 7h1M8 8h2m2 0h1M6 9h1"/><path stroke="#b6a69f" d="M2 9h1m0 1h1m2 1h1"/><path stroke="#c0b3ad" d="M3 9h1m6 1h1m-1 2h1"/><path stroke="#eeeded" d="M4 9h2m3 0h1m2 0h1m-7 1h1m2 0h1m1 0h1"/><path stroke="#a08a7f" d="M2 10h1m2 0h1m-3 1h1"/></svg>