<svg viewBox="0 0 16 16" xmlns="http://www.w3.org/2000/svg">
  <path d="M13.453, 8.919C13.451, 8.917 13.449, 8.915 13.448, 8.912C13.425, 8.855 13.385, 8.807 13.347, 8.758C13.331, 8.738 13.322, 8.713 13.305, 8.695C13.285, 8.675 13.256, 8.665 13.234, 8.647C13.187, 8.612 13.142, 8.575 13.089, 8.552C13.086, 8.551 13.084, 8.549 13.081, 8.547L9.061, 6.939L7.453, 2.919C7.452, 2.917 7.45, 2.915 7.449, 2.912C7.425, 2.855 7.386, 2.807 7.348, 2.758C7.332, 2.738 7.323, 2.713 7.305, 2.695C7.285, 2.675 7.257, 2.665 7.235, 2.647C7.188, 2.612 7.143, 2.575 7.089, 2.552C7.087, 2.551 7.085, 2.549 7.082, 2.547C7.048, 2.533 7.013, 2.536 6.978, 2.528C6.931, 2.517 6.885, 2.502 6.835, 2.501C6.781, 2.501 6.731, 2.517 6.679, 2.53C6.647, 2.538 6.616, 2.535 6.586, 2.547C6.583, 2.549 6.582, 2.551 6.579, 2.551C6.523, 2.575 6.475, 2.613 6.427, 2.651C6.407, 2.667 6.381, 2.677 6.363, 2.695C6.345, 2.713 6.335, 2.739 6.319, 2.759C6.281, 2.807 6.242, 2.855 6.219, 2.912C6.218, 2.915 6.215, 2.917 6.214, 2.919L4.606, 6.939L0.586, 8.547C0.583, 8.549 0.582, 8.551 0.579, 8.551C0.523, 8.575 0.475, 8.613 0.427, 8.651C0.407, 8.667 0.381, 8.677 0.363, 8.695C0.345, 8.713 0.335, 8.739 0.319, 8.759C0.281, 8.807 0.242, 8.855 0.219, 8.912C0.217, 8.915 0.215, 8.917 0.214, 8.919C0.202, 8.95 0.205, 8.981 0.197, 9.012C0.185, 9.063 0.169, 9.113 0.169, 9.167C0.169, 9.22 0.185, 9.27 0.197, 9.321C0.205, 9.352 0.202, 9.383 0.214, 9.414C0.215, 9.417 0.217, 9.419 0.219, 9.422C0.224, 9.435 0.234, 9.445 0.24, 9.458C0.269, 9.517 0.305, 9.571 0.349, 9.617C0.365, 9.635 0.382, 9.648 0.4, 9.664C0.446, 9.704 0.495, 9.736 0.55, 9.762C0.563, 9.769 0.572, 9.78 0.586, 9.785L4.606, 11.393L6.214, 15.413C6.215, 15.417 6.217, 15.419 6.219, 15.421C6.224, 15.434 6.234, 15.445 6.24, 15.457C6.269, 15.517 6.305, 15.57 6.349, 15.617C6.365, 15.634 6.382, 15.647 6.4, 15.663C6.446, 15.703 6.495, 15.735 6.55, 15.761C6.563, 15.768 6.572, 15.779 6.586, 15.785C6.594, 15.788 6.602, 15.787 6.61, 15.789C6.682, 15.815 6.756, 15.832 6.833, 15.832C6.911, 15.832 6.985, 15.815 7.057, 15.789C7.065, 15.787 7.073, 15.788 7.081, 15.785C7.095, 15.779 7.103, 15.767 7.117, 15.761C7.171, 15.735 7.221, 15.703 7.267, 15.663C7.285, 15.648 7.302, 15.634 7.318, 15.617C7.361, 15.57 7.397, 15.517 7.427, 15.457C7.433, 15.445 7.443, 15.434 7.448, 15.421C7.449, 15.418 7.451, 15.416 7.453, 15.413L9.061, 11.393L13.081, 9.785C13.095, 9.78 13.103, 9.768 13.117, 9.762C13.171, 9.736 13.221, 9.704 13.267, 9.664C13.285, 9.649 13.302, 9.635 13.318, 9.617C13.361, 9.571 13.397, 9.517 13.427, 9.458C13.433, 9.445 13.443, 9.435 13.448, 9.422C13.449, 9.419 13.451, 9.417 13.453, 9.414C13.465, 9.383 13.462, 9.352 13.469, 9.321C13.482, 9.27 13.497, 9.22 13.498, 9.167C13.498, 9.113 13.482, 9.063 13.469, 9.012C13.462, 8.981 13.465, 8.949 13.453, 8.919ZM8.3, 10.262C8.13, 10.33 7.996, 10.464 7.928, 10.634L6.833, 13.372L5.738, 10.633C5.67, 10.463 5.536, 10.329 5.366, 10.261L2.629, 9.167L5.367, 8.071C5.537, 8.003 5.671, 7.869 5.739, 7.699L6.834, 4.961L7.929, 7.699C7.997, 7.869 8.131, 8.003 8.301, 8.071L11.039, 9.167L8.3, 10.262ZM15.167, 2.5L13.5, 2.5L13.5, 0.833C13.5, 0.465 13.202, 0.167 12.833, 0.167C12.465, 0.167 12.167, 0.465 12.167, 0.833L12.167, 2.5L10.5, 2.5C10.131, 2.5 9.833, 2.798 9.833, 3.167C9.833, 3.535 10.131, 3.833 10.5, 3.833L12.167, 3.833L12.167, 5.5C12.167, 5.869 12.465, 6.167 12.833, 6.167C13.202, 6.167 13.5, 5.869 13.5, 5.5L13.5, 3.833L15.167, 3.833C15.535, 3.833 15.833, 3.535 15.833, 3.167C15.833, 2.798 15.535, 2.5 15.167, 2.5Z"/>
</svg>
